<?xml version="1.0" standalone="no"?><!DOCTYPE svg PUBLIC "-//W3C//DTD SVG 1.1//EN" "http://www.w3.org/Graphics/SVG/1.1/DTD/svg11.dtd"><svg t="1685943573591" class="icon" viewBox="0 0 1024 1024" version="1.1" xmlns="http://www.w3.org/2000/svg" p-id="11503" xmlns:xlink="http://www.w3.org/1999/xlink" width="200" height="200"><path d="M511.795282 512.204718m-511.795282 0a511.795282 511.795282 0 1 0 1023.590564 0 511.795282 511.795282 0 1 0-1023.590564 0Z" fill="#7dc5eb" p-id="11504" data-spm-anchor-id="a313x.7781069.0.i2" class="selected"></path><path d="M606.047501 665.453627c-3.520128 13.44998-20.495354 42.594674-48.035058 82.30487 7.362687 1.599872 14.730492 3.841535 21.775866 5.124094 13.128573 2.241663 26.579576 4.162943 39.709172 6.726014 4.483327 0.959104 6.72499-0.641791 8.967677-4.16499 26.579576-39.388788 48.038129-81.662055 66.292843-125.857625 7.045374-17.292539 13.129596-34.906485 19.534202-52.199025 0.640768-1.923327 1.282559-3.523199 1.92128-5.765885 14.091771 4.804734 28.182519 9.608445 42.91301 14.734586a884.337209 884.337209 0 0 1-7.684094 22.096249c-21.778936 60.847341-49.318641 118.811228-85.506661 172.291788-3.203838 4.482303-6.407677 8.646269-9.287037 13.129596-6.72499 10.249212-16.333435 13.44998-28.503927 12.489852-46.114802-4.483327-91.269476-15.052923-134.503894-31.062903-78.779624-30.104822-146.673363-75.580904-200.792643-140.911571-6.407677-7.684094-8.327933-16.650748-4.166014-25.616378 4.166014-8.967677 11.850108-12.813307 21.457529-13.132667 40.992755-0.638721 80.701927-8.646269 119.131611-23.376761 34.586102-13.129596 66.289772-31.063926 90.630756-59.885166 7.043327-8.328956 12.810236-17.615994 19.534202-26.903031 12.488828 7.04435 25.301112 14.091771 39.710196 22.09932-7.363711 10.567549-13.771387 21.133051-21.455481 30.742519-18.895482 23.696122-42.592627 41.631475-68.85489 56.362991-39.709172 22.09625-82.623207 34.588149-127.137114 41.951859-0.962175 0.320384-1.599872 0.320384-3.842559 0.640768 6.404606 5.762815 11.847037 11.208317 17.613947 16.013051 11.20934 8.966653 22.417657 17.613946 33.946357 25.938808 2.241663 1.603966 6.083199 2.24064 8.967677 1.603967 22.738041-5.126142 43.872115-14.092795 61.485038-30.42623-1.599872 8.007549-16.012027 28.183543-36.188021 50.921584 12.812283 6.403583 25.620472 11.846014 37.790964 18.892411 15.692667 9.288061 30.422135 6.723966 45.793395 0 25.620472-11.208317 47.716721-27.863159 68.85489-45.796466 2.881407-2.558976 6.085246-5.440384 9.926781-8.965629zM773.217241 548.245342c-72.376042-32.025078-144.111315-64.05118-216.487357-96.076258 6.083199-13.770364 15.371259-24.337913 28.182519-32.02303 21.134074-12.491899 43.552755-13.770364 65.969388-4.16499a5109.876689 5109.876689 0 0 1 86.468837 38.429684c33.625974 15.691643 49.638001 50.6012 39.070452 85.185254-0.961152 2.884478-1.923327 5.444478-3.203839 8.64934zM741.192163 422.388741a6277.568333 6277.568333 0 0 0-67.892715-30.104823c-0.638721-0.320384-0.959104-0.641791-1.599872-1.282559 0.961152-1.599872 1.599872-3.521152 2.562047-5.122047 28.180472-52.842863 56.364014-105.361248 84.544487-157.882703 4.803711-8.967677 10.250236-11.529724 20.496377-9.928828 9.287037 1.283583 17.294586 5.445502 23.378808 12.491899 4.162943 4.803711 5.125118 9.925758 2.882432 16.012027-21.137145 57.643503-41.953906 115.287005-62.770668 173.253963-0.637697 0.638721-0.959104 1.279488-1.600896 2.563071z m-343.62447 55.722223c-0.640768 31.383287-27.221367 57.001711-57.963887 56.041583-31.38431-0.961152-56.684398-26.89996-56.042606-57.962863 0.637697-30.746613 27.221367-56.364014 57.643502-55.725294 31.383287 0.320384 57.004782 26.89996 56.362991 57.646574zM249.613818 307.098665c18.892411 0 33.946357 15.371259 33.946358 33.946357-0.320384 18.572027-15.371259 33.625974-33.946358 33.625974-18.575098 0.320384-34.267765-15.371259-34.267764-33.946358 0.001024-18.575098 15.372283-33.946357 34.267764-33.625973z m79.739753 45.154674c0-12.812283 10.250236-22.738041 22.73804-22.416634 12.491899 0 22.738041 10.567549 22.738041 22.738041-0.320384 12.167421-10.566525 22.416633-22.738041 22.416633-12.487805 0-22.738041-10.249212-22.73804-22.73804z m0 0" fill="#FFFFFF" p-id="11505" data-spm-anchor-id="a313x.7781069.0.i1" class=""></path></svg>